<svg width="101" height="22" viewBox="0 0 101 22" fill="none" xmlns="http://www.w3.org/2000/svg">
<rect x="10" y="17" width="64.4376" height="5" rx="2.5" fill="#57534E"/>
<rect x="80.6735" y="17" width="10.3932" height="5" rx="2.5" fill="#57534E"/>
<path d="M7.476 1.13V3.314H3.528V5.05H6.44V7.136H3.528V11H0.784V1.13H7.476ZM15.3237 1.13V3.314H11.3757V5.05H14.2877V7.136H11.3757V11H8.63166V1.13H15.3237ZM23.1713 1.13V3.314H19.2233V5.05H22.1353V7.136H19.2233V11H16.4793V1.13H23.1713ZM30.7307 11.098C29.5827 11.098 28.64 10.8273 27.9027 10.286C27.1653 9.73533 26.7687 8.95133 26.7127 7.934H29.6387C29.6667 8.27933 29.7693 8.53133 29.9467 8.69C30.124 8.84867 30.3527 8.928 30.6327 8.928C30.8847 8.928 31.09 8.86733 31.2487 8.746C31.4167 8.61533 31.5007 8.438 31.5007 8.214C31.5007 7.92467 31.3653 7.70067 31.0947 7.542C30.824 7.38333 30.3853 7.206 29.7787 7.01C29.1347 6.79533 28.612 6.59 28.2107 6.394C27.8187 6.18867 27.4733 5.89467 27.1747 5.512C26.8853 5.12 26.7407 4.61133 26.7407 3.986C26.7407 3.35133 26.8993 2.81 27.2167 2.362C27.534 1.90467 27.9727 1.55933 28.5327 1.326C29.0927 1.09267 29.7273 0.976 30.4367 0.976C31.5847 0.976 32.4993 1.24667 33.1807 1.788C33.8713 2.32 34.24 3.07133 34.2867 4.042H31.3047C31.2953 3.74333 31.202 3.51933 31.0247 3.37C30.8567 3.22067 30.6373 3.146 30.3667 3.146C30.1613 3.146 29.9933 3.20667 29.8627 3.328C29.732 3.44933 29.6667 3.622 29.6667 3.846C29.6667 4.03267 29.7367 4.196 29.8767 4.336C30.026 4.46667 30.208 4.58333 30.4227 4.686C30.6373 4.77933 30.9547 4.90067 31.3747 5.05C32 5.26467 32.5133 5.47933 32.9147 5.694C33.3253 5.89933 33.6753 6.19333 33.9647 6.576C34.2633 6.94933 34.4127 7.42533 34.4127 8.004C34.4127 8.592 34.2633 9.11933 33.9647 9.586C33.6753 10.0527 33.2507 10.4213 32.6907 10.692C32.14 10.9627 31.4867 11.098 30.7307 11.098ZM41.5263 11L38.4323 6.674V11H35.6883V1.13H38.4323V5.386L41.4983 1.13H44.6623L41.0363 5.918L44.8443 11H41.5263ZM48.5905 1.13V11H45.8465V1.13H48.5905ZM59.2951 11H56.5511L52.8971 5.484V11H50.1531V1.13H52.8971L56.5511 6.716V1.13H59.2951V11ZM70.9719 1.13V3.314H68.3399V11H65.5959V3.314H62.9919V1.13H70.9719ZM76.7191 11.098C75.7951 11.098 74.9458 10.8833 74.1711 10.454C73.3965 10.0153 72.7805 9.41333 72.3231 8.648C71.8751 7.87333 71.6511 7.00067 71.6511 6.03C71.6511 5.05933 71.8751 4.19133 72.3231 3.426C72.7805 2.65133 73.3965 2.04933 74.1711 1.62C74.9458 1.19067 75.7951 0.976 76.7191 0.976C77.6525 0.976 78.5018 1.19067 79.2671 1.62C80.0418 2.04933 80.6531 2.65133 81.1011 3.426C81.5491 4.19133 81.7731 5.05933 81.7731 6.03C81.7731 7.00067 81.5491 7.87333 81.1011 8.648C80.6531 9.41333 80.0418 10.0153 79.2671 10.454C78.4925 10.8833 77.6431 11.098 76.7191 11.098ZM76.7191 8.55C77.4191 8.55 77.9698 8.32133 78.3711 7.864C78.7818 7.40667 78.9871 6.79533 78.9871 6.03C78.9871 5.246 78.7818 4.63 78.3711 4.182C77.9698 3.72467 77.4191 3.496 76.7191 3.496C76.0098 3.496 75.4545 3.72467 75.0531 4.182C74.6518 4.63 74.4511 5.246 74.4511 6.03C74.4511 6.80467 74.6518 7.42067 75.0531 7.878C75.4545 8.326 76.0098 8.55 76.7191 8.55ZM87.7387 11.098C86.8147 11.098 85.9653 10.8833 85.1907 10.454C84.416 10.0153 83.8 9.41333 83.3427 8.648C82.8947 7.87333 82.6707 7.00067 82.6707 6.03C82.6707 5.05933 82.8947 4.19133 83.3427 3.426C83.8 2.65133 84.416 2.04933 85.1907 1.62C85.9653 1.19067 86.8147 0.976 87.7387 0.976C88.672 0.976 89.5213 1.19067 90.2867 1.62C91.0613 2.04933 91.6727 2.65133 92.1207 3.426C92.5687 4.19133 92.7927 5.05933 92.7927 6.03C92.7927 7.00067 92.5687 7.87333 92.1207 8.648C91.6727 9.41333 91.0613 10.0153 90.2867 10.454C89.512 10.8833 88.6627 11.098 87.7387 11.098ZM87.7387 8.55C88.4387 8.55 88.9893 8.32133 89.3907 7.864C89.8013 7.40667 90.0067 6.79533 90.0067 6.03C90.0067 5.246 89.8013 4.63 89.3907 4.182C88.9893 3.72467 88.4387 3.496 87.7387 3.496C87.0293 3.496 86.474 3.72467 86.0727 4.182C85.6713 4.63 85.4707 5.246 85.4707 6.03C85.4707 6.80467 85.6713 7.42067 86.0727 7.878C86.474 8.326 87.0293 8.55 87.7387 8.55ZM96.7702 8.9H99.8362V11H94.0262V1.13H96.7702V8.9Z" fill="white"/>
</svg>
